<svg width="50" height="50" viewBox="0 0 50 50" fill="none" xmlns="http://www.w3.org/2000/svg">
<path d="M20.8333 20.8333H29.1666V29.1667H20.8333V20.8333Z" stroke="#DB2121" stroke-width="4" stroke-linecap="round" stroke-linejoin="round"/>
<path d="M20.8334 20.8333L13.5417 13.5417" stroke="#DB2121" stroke-width="4" stroke-linecap="round" stroke-linejoin="round"/>
<path d="M20.75 12.5001C20.5584 11.1596 19.9973 9.89892 19.1296 8.85935C18.2619 7.81977 17.1219 7.04235 15.8372 6.61419C14.5526 6.18603 13.1741 6.12404 11.8563 6.43517C10.5384 6.7463 9.33317 7.41826 8.37567 8.37576C7.41817 9.33326 6.74621 10.5385 6.43508 11.8563C6.12395 13.1742 6.18593 14.5527 6.6141 15.8373C7.04226 17.122 7.81968 18.262 8.85925 19.1297C9.89883 19.9974 11.1595 20.5585 12.5 20.7501" stroke="#DB2121" stroke-width="4" stroke-linecap="round" stroke-linejoin="round"/>
<path d="M29.1667 20.8333L36.4584 13.5417" stroke="#DB2121" stroke-width="4" stroke-linecap="round" stroke-linejoin="round"/>
<path d="M37.5 20.7501C38.8405 20.5585 40.1011 19.9974 41.1407 19.1297C42.1803 18.262 42.9577 17.122 43.3859 15.8373C43.814 14.5527 43.876 13.1742 43.5649 11.8563C43.2538 10.5385 42.5818 9.33326 41.6243 8.37576C40.6668 7.41826 39.4616 6.7463 38.1437 6.43517C36.8258 6.12404 35.4474 6.18603 34.1627 6.61419C32.8781 7.04235 31.7381 7.81977 30.8704 8.85935C30.0027 9.89892 29.4416 11.1596 29.25 12.5001" stroke="#DB2121" stroke-width="4" stroke-linecap="round" stroke-linejoin="round"/>
<path d="M29.1667 29.1667L36.4584 36.4583" stroke="#DB2121" stroke-width="4" stroke-linecap="round" stroke-linejoin="round"/>
<path d="M29.25 37.5001C29.4416 38.8406 30.0027 40.1012 30.8704 41.1408C31.7381 42.1804 32.8781 42.9578 34.1627 43.386C35.4474 43.8141 36.8258 43.8761 38.1437 43.565C39.4616 43.2539 40.6668 42.5819 41.6243 41.6244C42.5818 40.6669 43.2538 39.4617 43.5649 38.1438C43.876 36.8259 43.814 35.4474 43.3859 34.1628C42.9577 32.8782 42.1803 31.7381 41.1407 30.8705C40.1011 30.0028 38.8405 29.4417 37.5 29.2501" stroke="#DB2121" stroke-width="4" stroke-linecap="round" stroke-linejoin="round"/>
<path d="M20.8334 29.1667L13.5417 36.4583" stroke="#DB2121" stroke-width="4" stroke-linecap="round" stroke-linejoin="round"/>
<path d="M12.5 29.2501C11.1595 29.4417 9.89883 30.0028 8.85925 30.8705C7.81968 31.7381 7.04226 32.8782 6.6141 34.1628C6.18593 35.4474 6.12395 36.8259 6.43508 38.1438C6.74621 39.4617 7.41817 40.6669 8.37567 41.6244C9.33317 42.5819 10.5384 43.2539 11.8563 43.565C13.1741 43.8761 14.5526 43.8141 15.8372 43.386C17.1219 42.9578 18.2619 42.1804 19.1296 41.1408C19.9973 40.1012 20.5584 38.8406 20.75 37.5001" stroke="#DB2121" stroke-width="4" stroke-linecap="round" stroke-linejoin="round"/>
</svg>
