<svg width="25" height="25" viewBox="0 0 25 25" fill="none" xmlns="http://www.w3.org/2000/svg">
<path d="M9.375 3.125H3.125V9.375H1.5625V1.5625H9.375V3.125ZM1.5625 23.4375H9.375V21.875H3.125V15.625H1.5625V23.4375ZM15.625 3.125H21.875V9.375H23.4375V1.5625H15.625V3.125ZM23.4375 15.625H21.875V21.875H15.625V23.4375H23.4375V15.625ZM4.6875 15.625V14.0625H6.25V15.625H4.6875ZM6.25 20.3125V18.75H4.6875V20.3125H6.25ZM18.75 7.8125H14.0625V9.375H18.75V7.8125ZM10.9375 6.25H12.5V1.5625H10.9375V6.25ZM7.8125 12.5V10.9375H6.25V12.5H7.8125ZM4.6875 9.375H9.375V7.8125H4.6875V9.375ZM12.5 7.8125H10.9375V9.375H12.5V7.8125ZM12.5 10.9375H10.9375V15.6094H12.5V10.9375Z" fill="#FF9F0E" fill-opacity="0.9"/>
</svg>
