<svg width="139" height="37" viewBox="0 0 139 37" fill="none" xmlns="http://www.w3.org/2000/svg">
<path d="M42.5582 32.6586H3.44218" stroke="white" stroke-opacity="0.9" stroke-width="4" stroke-linecap="round" stroke-linejoin="round"/>
<path d="M3.01578 20.9256C2.83082 22.6962 4.29694 24.1462 6.07716 24.1462H39.9229C41.7032 24.1462 43.1692 22.6962 42.9842 20.9256C41.8483 10.0513 34.7774 4 23 4C11.2226 4 4.15176 10.0513 3.01578 20.9256Z" stroke="white" stroke-opacity="0.9" stroke-width="4" stroke-linecap="round" stroke-linejoin="round"/>
<path d="M63.249 9.22656V27H59.5869V9.22656H63.249ZM73.8936 9.22656L66.8501 18.0034L62.7852 22.3735L62.126 18.9067L64.8726 15.147L69.4014 9.22656H73.8936ZM69.731 27L64.4941 18.7847L67.2041 16.5142L74.0645 27H69.731ZM85.2949 9.22656H88.9448V20.9697C88.9448 22.3369 88.6519 23.4884 88.0659 24.4243C87.4881 25.3602 86.6865 26.0641 85.6611 26.5361C84.6439 27.0081 83.472 27.2441 82.1455 27.2441C80.819 27.2441 79.639 27.0081 78.6055 26.5361C77.5801 26.0641 76.7744 25.3602 76.1885 24.4243C75.6107 23.4884 75.3218 22.3369 75.3218 20.9697V9.22656H78.9839V20.9697C78.9839 21.7673 79.11 22.4183 79.3623 22.9229C79.6146 23.4274 79.9767 23.7977 80.4487 24.0337C80.9289 24.2697 81.4945 24.3877 82.1455 24.3877C82.8128 24.3877 83.3784 24.2697 83.8423 24.0337C84.3143 23.7977 84.6724 23.4274 84.9165 22.9229C85.1688 22.4183 85.2949 21.7673 85.2949 20.9697V9.22656ZM98.8813 20.6646H94.3525V17.8081H98.8813C99.5812 17.8081 100.151 17.6942 100.59 17.4663C101.03 17.2303 101.351 16.9048 101.555 16.4897C101.758 16.0747 101.86 15.6068 101.86 15.0859C101.86 14.557 101.758 14.0646 101.555 13.6089C101.351 13.1532 101.03 12.7869 100.59 12.5103C100.151 12.2336 99.5812 12.0952 98.8813 12.0952H95.6221V27H91.96V9.22656H98.8813C100.273 9.22656 101.465 9.47884 102.458 9.9834C103.459 10.4798 104.224 11.1675 104.753 12.0464C105.282 12.9253 105.546 13.9303 105.546 15.0615C105.546 16.209 105.282 17.2018 104.753 18.04C104.224 18.8783 103.459 19.5252 102.458 19.981C101.465 20.4367 100.273 20.6646 98.8813 20.6646ZM122.673 17.6982V18.5405C122.673 19.8914 122.49 21.104 122.124 22.1782C121.757 23.2524 121.241 24.168 120.573 24.9248C119.906 25.6735 119.108 26.2472 118.181 26.646C117.261 27.0448 116.24 27.2441 115.117 27.2441C114.002 27.2441 112.98 27.0448 112.053 26.646C111.133 26.2472 110.336 25.6735 109.66 24.9248C108.985 24.168 108.46 23.2524 108.085 22.1782C107.719 21.104 107.536 19.8914 107.536 18.5405V17.6982C107.536 16.3392 107.719 15.1266 108.085 14.0605C108.452 12.9863 108.968 12.0708 109.636 11.314C110.311 10.5571 111.109 9.97933 112.028 9.58057C112.956 9.1818 113.977 8.98242 115.092 8.98242C116.215 8.98242 117.237 9.1818 118.156 9.58057C119.084 9.97933 119.882 10.5571 120.549 11.314C121.224 12.0708 121.745 12.9863 122.111 14.0605C122.486 15.1266 122.673 16.3392 122.673 17.6982ZM118.974 18.5405V17.6738C118.974 16.7298 118.889 15.8997 118.718 15.1836C118.547 14.4674 118.295 13.8652 117.961 13.377C117.627 12.8887 117.22 12.5225 116.74 12.2783C116.26 12.026 115.711 11.8999 115.092 11.8999C114.474 11.8999 113.924 12.026 113.444 12.2783C112.972 12.5225 112.569 12.8887 112.236 13.377C111.91 13.8652 111.662 14.4674 111.491 15.1836C111.32 15.8997 111.235 16.7298 111.235 17.6738V18.5405C111.235 19.4764 111.32 20.3065 111.491 21.0308C111.662 21.7469 111.914 22.3532 112.248 22.8496C112.582 23.3379 112.989 23.7082 113.469 23.9604C113.949 24.2127 114.498 24.3389 115.117 24.3389C115.735 24.3389 116.285 24.2127 116.765 23.9604C117.245 23.7082 117.648 23.3379 117.973 22.8496C118.299 22.3532 118.547 21.7469 118.718 21.0308C118.889 20.3065 118.974 19.4764 118.974 18.5405ZM136.735 24.1436V27H127.788V24.1436H136.735ZM128.972 9.22656V27H125.31V9.22656H128.972Z" fill="white" fill-opacity="0.9"/>
</svg>
