<svg width="25" height="25" viewBox="0 0 25 25" fill="none" xmlns="http://www.w3.org/2000/svg">
<path d="M22.1061 12.4822H24.9998" stroke="white" stroke-width="2"/>
<path d="M0 12.4823H15.9385" stroke="white" stroke-width="2"/>
<path d="M9.6936 4.24323H24.9999" stroke="white" stroke-width="2"/>
<path d="M0 4.24323H3.53617" stroke="white" stroke-width="2"/>
<path d="M14.0417 20.7213H24.9998" stroke="white" stroke-width="2"/>
<path d="M0 20.7213H7.87415" stroke="white" stroke-width="2"/>
<path d="M6.615 7.16774C8.31817 7.16774 9.69887 5.78705 9.69887 4.08387C9.69887 2.3807 8.31817 1 6.615 1C4.91182 1 3.53113 2.3807 3.53113 4.08387C3.53113 5.78705 4.91182 7.16774 6.615 7.16774Z" stroke="white" stroke-width="2"/>
<path d="M19.0222 15.5661C20.7254 15.5661 22.1061 14.1854 22.1061 12.4822C22.1061 10.7791 20.7254 9.39838 19.0222 9.39838C17.3191 9.39838 15.9384 10.7791 15.9384 12.4822C15.9384 14.1854 17.3191 15.5661 19.0222 15.5661Z" stroke="white" stroke-width="2"/>
<path d="M10.9583 23.8052C12.6614 23.8052 14.0421 22.4245 14.0421 20.7213C14.0421 19.0181 12.6614 17.6375 10.9583 17.6375C9.25509 17.6375 7.87439 19.0181 7.87439 20.7213C7.87439 22.4245 9.25509 23.8052 10.9583 23.8052Z" stroke="white" stroke-width="2"/>
</svg>
