<svg width="40" height="40" viewBox="0 0 40 40" fill="none" xmlns="http://www.w3.org/2000/svg">
<path d="M35.5556 6.66669H4.44451C3.85514 6.66669 3.28991 6.90081 2.87316 7.31756C2.45642 7.73431 2.22229 8.29954 2.22229 8.88891V31.1111C2.22229 31.7005 2.45642 32.2657 2.87316 32.6825C3.28991 33.0992 3.85514 33.3334 4.44451 33.3334H35.5556C36.145 33.3334 36.7102 33.0992 37.127 32.6825C37.5437 32.2657 37.7778 31.7005 37.7778 31.1111V8.88891C37.7778 8.29954 37.5437 7.73431 37.127 7.31756C36.7102 6.90081 36.145 6.66669 35.5556 6.66669ZM35.5556 31.1111H4.44451V8.88891H35.5556V31.1111Z" fill="white" fill-opacity="0.9"/>
<path d="M10 15.5555H30C30.2947 15.5555 30.5773 15.4385 30.7857 15.2301C30.9941 15.0217 31.1111 14.7391 31.1111 14.4444C31.1111 14.1497 30.9941 13.8671 30.7857 13.6588C30.5773 13.4504 30.2947 13.3333 30 13.3333H10C9.70534 13.3333 9.42273 13.4504 9.21435 13.6588C9.00598 13.8671 8.88892 14.1497 8.88892 14.4444C8.88892 14.7391 9.00598 15.0217 9.21435 15.2301C9.42273 15.4385 9.70534 15.5555 10 15.5555Z" fill="white" fill-opacity="0.9"/>
<path d="M10 20H30C30.2947 20 30.5773 19.8829 30.7857 19.6746C30.9941 19.4662 31.1111 19.1836 31.1111 18.8889C31.1111 18.5942 30.9941 18.3116 30.7857 18.1032C30.5773 17.8948 30.2947 17.7778 30 17.7778H10C9.70534 17.7778 9.42273 17.8948 9.21435 18.1032C9.00598 18.3116 8.88892 18.5942 8.88892 18.8889C8.88892 19.1836 9.00598 19.4662 9.21435 19.6746C9.42273 19.8829 9.70534 20 10 20Z" fill="white" fill-opacity="0.9"/>
<path d="M10 24.4445H21.1111C21.4058 24.4445 21.6884 24.3274 21.8968 24.119C22.1052 23.9106 22.2222 23.628 22.2222 23.3333C22.2222 23.0387 22.1052 22.756 21.8968 22.5477C21.6884 22.3393 21.4058 22.2222 21.1111 22.2222H10C9.70534 22.2222 9.42273 22.3393 9.21435 22.5477C9.00598 22.756 8.88892 23.0387 8.88892 23.3333C8.88892 23.628 9.00598 23.9106 9.21435 24.119C9.42273 24.3274 9.70534 24.4445 10 24.4445Z" fill="white" fill-opacity="0.9"/>
</svg>
